<?xml version="1.0" encoding="iso-8859-1"?>
<!-- Generator: Adobe Illustrator 18.1.1, SVG Export Plug-In . SVG Version: 6.00 Build 0)  -->
<svg version="1.1" id="Capa_1" xmlns="http://www.w3.org/2000/svg" xmlns:xlink="http://www.w3.org/1999/xlink" x="0px" y="0px"
	 viewBox="0 0 20.462 20.462" style="enable-background:new 0 0 20.462 20.462;" xml:space="preserve">
<g>
	<g>
		<path style="fill:#030104;" d="M19.312,9.843c-0.495-0.519-0.994-0.967-1.5-1.356c0.281-0.037,0.492-0.28,0.475-0.568
			C18.23,7.007,17.91,5.776,17.85,5.596c-0.497-1.484-1.711-2.637-1.78-2.702c-1.379-1.189-2.544,0.039-3.24,0.773
			c-0.825,0.873-1.019,0.936-1.274,0.72c-0.729-0.667-1.359-0.674-1.759-0.565C8.668,4.133,8.172,5.687,8.119,5.864
			C7.945,6.446,7.608,7.079,7.414,7.201c-0.05-0.039-0.17-0.158-0.333-0.495L7.028,6.618C6.457,5.852,5.863,5.552,5.261,5.727
			c-1.089,0.315-1.688,2.398-2.01,4.26C3.226,9.964,3.207,9.936,3.177,9.919c-0.257-0.155-0.592-0.073-0.75,0.184
			c-1.684,2.779-2.324,5.638-2.344,5.729c-0.221,0.809,0.042,1.308,0.302,1.586c0.479,0.51,1.311,0.646,2.064,0.646
			c0.619,0,1.184-0.092,1.461-0.146c0.613-0.031,1.226-0.213,1.253-0.222c0.049-0.016,2.601-0.779,5.535-1.625l7.33-2.002
			c0.063-0.016,0.13-0.031,0.19-0.045c1.256-0.29,1.993-0.829,2.192-1.601C20.738,11.169,19.432,9.95,19.312,9.843z M2.33,16.967
			c-0.505-0.012-0.957-0.095-1.148-0.298c-0.037-0.038-0.151-0.161-0.039-0.576c0.006-0.024,0.552-2.469,1.935-4.939
			c-0.075,0.595-0.122,1.108-0.147,1.445c-0.023,0.3,0.202,0.563,0.502,0.585c0.014,0.001,0.028,0.002,0.042,0.002
			c0.282,0,0.521-0.219,0.543-0.504c0.227-2.975,0.95-5.734,1.547-5.907c0.07-0.021,0.274,0.086,0.557,0.456
			c0.375,0.754,0.837,1.115,1.364,1.072c0.99-0.08,1.534-1.647,1.677-2.125c0.107-0.359,0.489-1.184,0.922-1.303
			c0.196-0.054,0.443,0.052,0.75,0.333c1.138,0.955,2.132-0.095,2.79-0.791c0.947-1.003,1.238-1.122,1.715-0.712
			c0.012,0.01,1.066,1.011,1.476,2.238c0.043,0.128,0.307,1.163,0.372,1.937l-1.5-3.125c-1.361-1.494-2.042,1.109-2.92,1.926
			c-0.292,0.014-0.582,0.042-0.864,0.093c-0.063-0.045-0.125-0.097-0.19-0.167c-1.388-1.622-2.319,0.508-2.595,1.278
			c-0.743,0.461-1.435,1.02-2.066,1.63c-0.237-0.164-0.47-0.487-0.684-1.05c-0.854-2.253-1.821,2.525-2.185,4.592
			c-0.958,1.471-1.507,2.646-1.563,2.767C2.521,16.006,2.265,16.483,2.33,16.967z M19.357,12.152
			c-0.086,0.337-0.576,0.624-1.38,0.809c-1.708,0.395-4.822,1.269-7.59,2.065l-6.611,1.807c-0.013,0-0.025,0-0.038,0
			c-0.188,0-0.285-0.024-0.33-0.04c0.006-0.061,0.037-0.204,0.187-0.481c0.039-0.085,3.993-8.552,9.468-8.552
			c1.824,0,3.66,0.955,5.489,2.867C18.87,10.912,19.484,11.661,19.357,12.152z"/>
		<circle style="fill:#030104;" cx="15.373" cy="10.221" r="0.591"/>
		<circle style="fill:#030104;" cx="12.146" cy="9.629" r="0.591"/>
		<circle style="fill:#030104;" cx="9.236" cy="12.993" r="0.591"/>
		<circle style="fill:#030104;" cx="12.554" cy="11.993" r="0.443"/>
		<circle style="fill:#030104;" cx="6.275" cy="14.943" r="0.356"/>
	</g>
</g>
<g>
</g>
<g>
</g>
<g>
</g>
<g>
</g>
<g>
</g>
<g>
</g>
<g>
</g>
<g>
</g>
<g>
</g>
<g>
</g>
<g>
</g>
<g>
</g>
<g>
</g>
<g>
</g>
<g>
</g>
</svg>
